<?xml version="1.0" encoding="UTF-8" standalone="no"?>
<!-- Created with Inkscape (http://www.inkscape.org/) -->
<svg xmlns:osb="http://www.openswatchbook.org/uri/2009/osb" xmlns:dc="http://purl.org/dc/elements/1.1/" xmlns:cc="http://creativecommons.org/ns#" xmlns:rdf="http://www.w3.org/1999/02/22-rdf-syntax-ns#" xmlns:svg="http://www.w3.org/2000/svg" xmlns="http://www.w3.org/2000/svg" xmlns:sodipodi="http://sodipodi.sourceforge.net/DTD/sodipodi-0.dtd" xmlns:inkscape="http://www.inkscape.org/namespaces/inkscape" width="1920" height="1080" id="svg2" version="1.1" inkscape:version="0.48.4 r9939" sodipodi:docname="brain.svg" inkscape:export-filename="/home/marcel/Desktop/personal/tagjam18/wallpaper6.png" inkscape:export-xdpi="90" inkscape:export-ydpi="90">
  <defs id="defs4">
    <inkscape:path-effect effect="bend_path" id="path-effect5668" is_visible="true" bendpath="m 129.95181,733.46985 c 0,0 157.274,-10.35099 179.75743,46.51154" prop_scale="1" scale_y_rel="false" vertical="false" bendpath-nodetypes="cc"/>
    <inkscape:path-effect effect="bend_path" id="path-effect5541" is_visible="true" bendpath="m -354.80859,469.07805 c 0,0 146.44354,-60.58253 209.05344,0" prop_scale="1" scale_y_rel="false" vertical="false" bendpath-nodetypes="cc"/>
    <inkscape:path-effect effect="envelope" id="path-effect5539" is_visible="true" yy="true" xx="true" bendpath1="m -354.80859,451.01283 209.05344,0" bendpath2="m -145.75515,451.01283 0,36.13044" bendpath3="m -354.80859,487.14327 104.52672,0 104.52672,0" bendpath4="m -354.80859,451.01283 0,36.13044" bendpath3-nodetypes="ccc"/>
    <linearGradient id="linearGradient5395" osb:paint="gradient">
      <stop style="stop-color:#ff0000;stop-opacity:1;" offset="0" id="stop5397"/>
      <stop style="stop-color:#ff0000;stop-opacity:0;" offset="1" id="stop5399"/>
    </linearGradient>
    <inkscape:path-effect effect="envelope" id="path-effect5369" is_visible="true" yy="true" xx="true" bendpath1="m 610.83734,165.89636 c 0,0 149.0264,-59.96669 273.321,0" bendpath2="m 884.15834,165.89636 0,237.79184" bendpath3="m 610.83734,403.6882 c 0,0 143.57489,-65.41821 273.321,0" bendpath4="m 610.83734,165.89636 0,237.79184" bendpath1-nodetypes="cc" bendpath3-nodetypes="cc"/>
    <inkscape:path-effect effect="bend_path" id="path-effect5367" is_visible="true" bendpath="m 610.83734,284.79228 273.321,0" prop_scale="1" scale_y_rel="false" vertical="false"/>
  </defs>
  <sodipodi:namedview id="base" pagecolor="#ffffff" bordercolor="#666666" borderopacity="1.0" inkscape:pageopacity="0.0" inkscape:pageshadow="2" inkscape:zoom="0.47729708" inkscape:cx="748.63766" inkscape:cy="443.91132" inkscape:document-units="px" inkscape:current-layer="layer3" showgrid="false" width="1473px" borderlayer="true" showguides="true" inkscape:guide-bbox="true" inkscape:window-width="1551" inkscape:window-height="876" inkscape:window-x="49" inkscape:window-y="24" inkscape:window-maximized="1"/>
  <metadata id="metadata7">
    <rdf:RDF>
      <cc:Work rdf:about="">
        <dc:format>image/svg+xml</dc:format>
        <dc:type rdf:resource="http://purl.org/dc/dcmitype/StillImage"/>
        <dc:title/>
      </cc:Work>
    </rdf:RDF>
  </metadata>
  <g inkscape:groupmode="layer" id="layer5" inkscape:label="sky" style="display:inline" transform="translate(0,780)"/>
  <g inkscape:groupmode="layer" id="layer2" inkscape:label="braintitle" style="display:inline" transform="translate(0,480)"/>
  <g inkscape:groupmode="layer" id="layer3" inkscape:label="brain" style="display:inline" transform="translate(0,480)">
    <path transform="matrix(0.98122233,0,0,0.43305344,-185.31574,313.71256)" d="m 298.74315,460.44116 a 204.4319,228.96373 0 1 1 -408.8638,0 204.4319,228.96373 0 1 1 408.8638,0 z" sodipodi:ry="228.96373" sodipodi:rx="204.4319" sodipodi:cy="460.44116" sodipodi:cx="94.311249" id="path5608" style="fill:#ffffff;fill-opacity:1;fill-rule:nonzero;stroke:none;display:inline" sodipodi:type="arc"/>
    <rect style="fill:#ffffff;fill-opacity:0;fill-rule:nonzero;stroke:none;display:inline" id="rect5381" width="1417.5938" height="598.67749" x="-59.317471" y="21.102898"/>
    <rect style="fill:#ffffff;fill-opacity:0;fill-rule:nonzero;stroke:none;display:inline" id="rect5383" width="325.53085" height="349.22852" x="-6.9655066" y="-15.57773"/>
    <rect style="fill:#b8ebfe;fill-opacity:1;fill-rule:nonzero;stroke:none;display:inline" id="rect5385" width="3662.7405" height="1161.649" x="-904.50287" y="-508.31494"/>
    <path sodipodi:type="arc" style="fill:#ffffff;fill-opacity:1;fill-rule:nonzero;stroke:none;display:inline" id="path5610" sodipodi:cx="94.311249" sodipodi:cy="460.44116" sodipodi:rx="204.4319" sodipodi:ry="228.96373" d="m 298.74315,460.44116 a 204.4319,228.96373 0 1 1 -408.8638,0 204.4319,228.96373 0 1 1 408.8638,0 z" transform="matrix(-2.598358,0,0,1.1659801,2102.6211,89.08642)"/>
    <path transform="matrix(2.598358,0,0,1.1659801,-399.26049,125.93294)" d="m 298.74315,460.44116 a 204.4319,228.96373 0 1 1 -408.8638,0 204.4319,228.96373 0 1 1 408.8638,0 z" sodipodi:ry="228.96373" sodipodi:rx="204.4319" sodipodi:cy="460.44116" sodipodi:cx="94.311249" id="path5606" style="fill:#ffffff;fill-opacity:1;fill-rule:nonzero;stroke:none;display:inline" sodipodi:type="arc"/>
    <path sodipodi:type="arc" style="fill:#ffffff;fill-opacity:1;fill-rule:nonzero;stroke:none;display:inline" id="path5604" sodipodi:cx="94.311249" sodipodi:cy="460.44116" sodipodi:rx="204.4319" sodipodi:ry="228.96373" d="m 298.74315,460.44116 a 204.4319,228.96373 0 1 1 -408.8638,0 204.4319,228.96373 0 1 1 408.8638,0 z" transform="matrix(2.464946,0,0,1.1061132,-756.82093,-27.872825)"/>
    <path transform="matrix(-2.464946,0,0,1.1061132,2518.1392,-11.984654)" d="m 298.74315,460.44116 a 204.4319,228.96373 0 1 1 -408.8638,0 204.4319,228.96373 0 1 1 408.8638,0 z" sodipodi:ry="228.96373" sodipodi:rx="204.4319" sodipodi:cy="460.44116" sodipodi:cx="94.311249" id="path5612" style="fill:#ffffff;fill-opacity:1;fill-rule:nonzero;stroke:none;display:inline" sodipodi:type="arc"/>
    <path sodipodi:type="arc" style="fill:#ffffff;fill-opacity:1;fill-rule:nonzero;stroke:none;display:inline" id="path5614" sodipodi:cx="94.311249" sodipodi:cy="460.44116" sodipodi:rx="204.4319" sodipodi:ry="228.96373" d="m 298.74315,460.44116 a 204.4319,228.96373 0 1 1 -408.8638,0 204.4319,228.96373 0 1 1 408.8638,0 z" transform="matrix(-2.464946,0,0,1.1061132,2961.4657,-175.32971)"/>
    <path id="path5553" d="m 921.1941,262.8995 c -198.42749,0 -359.2925,47.39157 -359.2925,105.85004 0,58.45845 160.86501,105.85002 359.2925,105.85002 198.4275,0 359.2926,-47.39157 359.2926,-105.85002 0,-58.45847 -160.8651,-105.85004 -359.2926,-105.85004 z m 0,11.61724 c 186.3283,0 337.3871,40.44446 337.3871,90.34804 0,49.90358 -151.0588,90.34806 -337.3871,90.34806 -186.32825,0 -337.38708,-40.44448 -337.38708,-90.34806 0,-49.90358 151.05883,-90.34804 337.38708,-90.34804 z" style="fill:#e39b9b;fill-opacity:1;fill-rule:nonzero;stroke:none;display:inline" inkscape:connector-curvature="0"/>
    <path style="fill:#e9afaf;stroke:none;display:inline" d="m 1257.7444,358.5752 -673.82822,4.29173 c -0.0539,0.66511 -0.10911,1.32925 -0.10911,1.99785 0,49.90358 151.05881,90.34806 337.38712,90.34806 186.32821,0 337.38711,-40.44448 337.38711,-90.34806 0,-2.11385 -0.3037,-4.21202 -0.8368,-6.28958 z m 22.633,7.43651 c 0.078,0.90787 0.1096,1.82442 0.1096,2.73783 0,58.45845 -160.865,105.85002 -359.29252,105.85002 -197.96699,0 -358.5482,-47.17172 -359.29252,-105.44305 -6.76754,32.27981 -72.6013,351.41184 -29.18298,349.95995 45.70408,-1.52836 816.32252,-7.6585 816.32252,-7.6585 -8.9896,-148.80296 -57.575,-310.19139 -68.6637,-345.44625 z" id="path5555" inkscape:connector-curvature="0"/>
    <path sodipodi:nodetypes="csccc" inkscape:connector-curvature="0" id="path5379" d="m 555.81747,451.358 c 0,0 -1.89777,-144.4895 -83.79078,-89.06757 -63.05989,42.67642 -37.94781,143.83387 1.26956,231.05934 0,0 -29.19985,29.68919 -12.69566,58.08755 114.28462,26.72218 80.57247,-114.31389 95.21688,-200.07932 z" style="fill:#e9afaf;fill-opacity:1;stroke:none;display:inline"/>
    <path style="fill:#e9afaf;fill-opacity:1;stroke:none;display:inline" d="m 1305.8742,451.358 c 0,0 1.8978,-144.4895 83.7908,-89.06757 63.0598,42.67642 37.9478,143.83387 -1.2695,231.05934 0,0 29.1998,29.68919 12.6956,58.08755 -114.2847,26.72218 -80.5725,-114.31389 -95.2169,-200.07932 z" id="path5377" inkscape:connector-curvature="0" sodipodi:nodetypes="csccc"/>
    <path style="fill:#b8ebfe;fill-opacity:1;fill-rule:nonzero;stroke:none;display:inline" inkscape:transform-center-x="9.9979444" inkscape:transform-center-y="-5.4515174" d="m 1399.8214,413.92374 45.9199,-39.86443 45.9197,-39.86443 10.9947,60.36635 -5.7278,26.36105 -40.1919,13.50338 z" id="path5445" inkscape:connector-curvature="0" sodipodi:nodetypes="ccccccc"/>
    <path style="fill:#eec1c1;fill-opacity:1;stroke:none;display:inline" d="m 563.18302,363.00296 c 0,0 -76.17347,357.63392 -30.46938,356.10558 45.70406,-1.52834 816.32546,-7.64175 816.32546,-7.64175 -10.1564,-168.1185 -71.0951,-353.04887 -71.0951,-353.04887 z" id="path5373" inkscape:connector-curvature="0" sodipodi:nodetypes="csccc"/>
    <path transform="matrix(1.1644076,0,0,1.0727249,37.58614,-117.57973)" d="m 1067.4071,453.35419 a 308.55588,98.672462 0 1 1 -617.11178,0 308.55588,98.672462 0 1 1 617.11178,0 z" sodipodi:ry="98.672462" sodipodi:rx="308.55588" sodipodi:cy="453.35419" sodipodi:cx="758.8512" id="path5375" style="fill:#e39b9b;fill-opacity:1;fill-rule:nonzero;stroke:none;display:inline" sodipodi:type="arc"/>
    <path sodipodi:type="arc" style="fill:#770a1e;fill-opacity:1;fill-rule:nonzero;stroke:none;display:inline" id="path5371" sodipodi:cx="758.8512" sodipodi:cy="453.35419" sodipodi:rx="308.55588" sodipodi:ry="98.672462" d="m 1067.4071,453.35419 a 308.55588,98.672462 0 1 1 -617.11178,0 308.55588,98.672462 0 1 1 617.11178,0 z" transform="matrix(1.0934072,0,0,0.9157408,91.464944,-50.282825)"/>
    <g transform="matrix(1.1644076,0,0,1.183922,122.64652,-102.80428)" id="g5568" style="fill:#004d00;fill-opacity:1;display:inline">
      <path style="fill:#004d00;fill-opacity:1;stroke:none" d="m 1550.4116,-308.2228 c 0,0 -321.2066,192.39925 -329.2717,214.789787 -4.3628,12.112283 3.3244,62.30928 -4.3612,73.050336 -10.7472,15.0199207 -154.701,110.898648 -161.3649,125.384897 5.577,28.68889 16.3105,44.12512 33.7994,61.05699 13.576,7.37682 168.3017,-93.013472 188.6224,-95.946701 24.3135,-3.509579 87.3461,14.621957 105.7595,4.36121 30.1243,-16.78652 309.6462,-194.074019 309.6462,-194.074019 z" id="path5570" inkscape:connector-curvature="0" sodipodi:nodetypes="cssccsscc"/>
      <rect style="fill:#004d00;fill-opacity:1;fill-rule:nonzero;stroke:none" id="rect5572" width="187.01062" height="162.02699" x="-792.87756" y="1118.5026" transform="matrix(-0.604317,-0.79674398,0.85156375,-0.52425107,0,0)"/>
    </g>
    <path style="fill:#bd00bd;fill-opacity:1;stroke:none;display:inline" d="m 715.06165,324.38759 c 0,0 58.09867,31.99755 55.67792,89.22391 -19.8094,74.34165 33.95733,61.23698 11.4987,0 -9.07795,-57.22636 69.59737,-81.83984 69.59737,-81.83984 z" id="path5490" inkscape:connector-curvature="0" sodipodi:nodetypes="ccccc"/>
    <g id="g5423" style="fill:#333333;stroke:#333333;display:inline" transform="matrix(1.1644076,0,0,1.183922,59.168631,-132.49346)">
      <path inkscape:connector-curvature="0" id="path5415" d="m 517.80385,557.3812 160.27461,-1.0903" style="fill:#333333;stroke:#333333;stroke-width:20;stroke-linecap:round;stroke-linejoin:miter;stroke-miterlimit:4;stroke-opacity:1;stroke-dasharray:none"/>
      <path transform="translate(0,-25)" d="m 625.2307,596.60199 c 0,13.3574 -10.82832,24.18571 -24.18572,24.18571 -13.3574,0 -24.18571,-10.82831 -24.18571,-24.18571 0,-13.3574 10.82831,-24.18571 24.18571,-24.18571 13.3574,0 24.18572,10.82831 24.18572,24.18571 z" sodipodi:ry="24.185715" sodipodi:rx="24.185715" sodipodi:cy="596.60199" sodipodi:cx="601.04498" id="path5417" style="fill:#333333;fill-opacity:1;fill-rule:nonzero;stroke:#333333" sodipodi:type="arc"/>
    </g>
    <path inkscape:connector-curvature="0" id="path5419" d="m 1138.6658,527.40242 c 0,0 -79.9821,-67.12337 -186.62494,-1.29084" style="fill:none;stroke:#333333;stroke-width:23.48248672;stroke-linecap:round;stroke-linejoin:miter;stroke-miterlimit:4;stroke-opacity:1;stroke-dasharray:none;display:inline" sodipodi:nodetypes="cc"/>
    <path transform="matrix(-1.1644076,0,0,1.183922,1740.4362,-162.09152)" d="m 625.2307,596.60199 a 24.185715,24.185715 0 1 1 -48.37143,0 24.185715,24.185715 0 1 1 48.37143,0 z" sodipodi:ry="24.185715" sodipodi:rx="24.185715" sodipodi:cy="596.60199" sodipodi:cx="601.04498" id="path5421" style="fill:#333333;fill-opacity:1;fill-rule:nonzero;stroke:none;display:inline" sodipodi:type="arc"/>
    <path sodipodi:type="arc" style="fill:#333333;fill-opacity:1;fill-rule:nonzero;stroke:none;display:inline" id="path5431" sodipodi:cx="1238.5" sodipodi:cy="704" sodipodi:rx="6.5" sodipodi:ry="6" d="m 1245,704 a 6.5,6 0 1 1 -13,0 6.5,6 0 1 1 13,0 z" transform="matrix(1.1644076,0,0,1.183922,-162.06881,-392.95631)"/>
    <path transform="matrix(1.1644076,0,0,1.183922,-180.69932,-355.07081)" d="m 1245,704 a 6.5,6 0 1 1 -13,0 6.5,6 0 1 1 13,0 z" sodipodi:ry="6" sodipodi:rx="6.5" sodipodi:cy="704" sodipodi:cx="1238.5" id="path5433" style="fill:#333333;fill-opacity:1;fill-rule:nonzero;stroke:none;display:inline" sodipodi:type="arc"/>
    <path sodipodi:type="arc" style="fill:#333333;fill-opacity:1;fill-rule:nonzero;stroke:none;display:inline" id="path5435" sodipodi:cx="1238.5" sodipodi:cy="704" sodipodi:rx="6.5" sodipodi:ry="6" d="m 1245,704 a 6.5,6 0 1 1 -13,0 6.5,6 0 1 1 13,0 z" transform="matrix(1.1644076,0,0,1.183922,-148.09592,-343.23159)"/>
    <path transform="matrix(-1.1644076,0,0,1.183922,2018.8666,-402.42768)" d="m 1245,704 a 6.5,6 0 1 1 -13,0 6.5,6 0 1 1 13,0 z" sodipodi:ry="6" sodipodi:rx="6.5" sodipodi:cy="704" sodipodi:cx="1238.5" id="path5437" style="fill:#333333;fill-opacity:1;fill-rule:nonzero;stroke:none;display:inline" sodipodi:type="arc"/>
    <path sodipodi:type="arc" style="fill:#333333;fill-opacity:1;fill-rule:nonzero;stroke:none;display:inline" id="path5439" sodipodi:cx="1238.5" sodipodi:cy="704" sodipodi:rx="6.5" sodipodi:ry="6" d="m 1245,704 a 6.5,6 0 1 1 -13,0 6.5,6 0 1 1 13,0 z" transform="matrix(-1.1644076,0,0,1.183922,2037.4972,-364.54219)"/>
    <path transform="matrix(-1.1644076,0,0,1.183922,2004.8937,-352.70296)" d="m 1245,704 a 6.5,6 0 1 1 -13,0 6.5,6 0 1 1 13,0 z" sodipodi:ry="6" sodipodi:rx="6.5" sodipodi:cy="704" sodipodi:cx="1238.5" id="path5441" style="fill:#333333;fill-opacity:1;fill-rule:nonzero;stroke:none;display:inline" sodipodi:type="arc"/>
    <path style="fill:#f39551;fill-opacity:1;stroke:none;display:inline" d="m 1402.3606,71.852719 -33.0085,-42.597556 c -119.3384,52.924215 -349.6894,431.665357 -349.6894,431.665357 127.341,-7.41639 77.942,-1.40563 197.8761,-41.659 0,0 41.3618,-241.56041 184.8218,-347.408801 z" id="path5551" inkscape:connector-curvature="0" sodipodi:nodetypes="ccccc"/>
    <path sodipodi:nodetypes="csc" inkscape:connector-curvature="0" id="path5447" d="M 889.4593,741.79573 C 791.70338,712.10651 834.98672,547.29232 903.67511,545.58889 955.7269,544.29809 1026.5283,751.9207 889.4593,741.79573 z" style="fill:#e39b9b;fill-opacity:1;stroke:none;display:inline"/>
    <path sodipodi:nodetypes="ccccc" inkscape:connector-curvature="0" id="path5492" d="m 961.91609,295.97348 c 0,0 58.09861,33.61895 55.67791,93.74511 -19.80937,78.10878 33.9573,64.34006 11.4987,0 -9.078,-60.12619 69.5973,-85.9869 69.5973,-85.9869 z" style="fill:#bd00bd;fill-opacity:1;stroke:none;display:inline"/>
    <path style="fill:#e39b9b;fill-opacity:1;fill-rule:nonzero;stroke:none;display:inline" d="m 921.1941,262.8995 c -198.42749,0 -359.2925,47.39157 -359.2925,105.85004 0,58.45845 160.86501,105.85002 359.2925,105.85002 198.4275,0 359.2926,-47.39157 359.2926,-105.85002 0,-58.45847 -160.8651,-105.85004 -359.2926,-105.85004 z m 0,11.61724 c 186.3283,0 337.3871,40.44446 337.3871,90.34804 0,49.90358 -151.0588,90.34806 -337.3871,90.34806 -186.32825,0 -337.38708,-40.44448 -337.38708,-90.34806 0,-49.90358 151.05883,-90.34804 337.38708,-90.34804 z" id="path5495" inkscape:connector-curvature="0"/>
    <path style="fill:#008000;fill-opacity:1;stroke:none;display:inline" d="m 1927.9576,-469.00686 c 0,0 -374.0154,227.7857 -383.4064,254.29435 -5.0802,14.33999 3.8708,73.76932 -5.0783,86.4859 -12.5142,17.78242 -180.135,131.2953594 -187.8945,148.445952 20.4667,24.494037 34.1294,47.505005 39.3563,72.286716 15.808,8.733562 195.9717,-110.120705 219.6333,-113.593412 28.311,-4.155088 101.7064,17.3112383 123.1471,5.163316 35.0772,-19.873918 360.5544,-229.768512 360.5544,-229.768512 z" id="path5543" inkscape:connector-curvature="0" sodipodi:nodetypes="cssccsscc"/>
    <rect style="fill:#ffeeaa;fill-opacity:1;fill-rule:nonzero;stroke:none;display:inline" id="rect5545" width="220.08026" height="189.53972" x="-909.84595" y="1469.5134" transform="matrix(-0.59793645,-0.80154352,0.84763587,-0.5305784,0,0)"/>
    <path sodipodi:nodetypes="ccccc" inkscape:connector-curvature="0" id="path5574" d="m 1323.1809,142.31325 -28.6964,-34.91923 c -103.7481,43.38448 -174.5156,250.27351 -174.5156,250.27351 106.2906,8.73465 9.8801,26.06778 114.146,-6.9298 0,0 13.8347,-62.01545 89.066,-208.42448 z" style="fill:#f39551;fill-opacity:1;stroke:none;display:inline"/>
    <path transform="matrix(-1.1644076,0,0,1.183922,1908.483,-278.35774)" inkscape:transform-center-y="-5.4515174" inkscape:transform-center-x="-9.9979876" d="m 1252.7587,658.87636 39.4362,-33.6715 39.4361,-33.6715 9.4423,50.98845 9.4423,50.98845 -48.8784,-17.31695 z" inkscape:randomized="0" inkscape:rounded="0" inkscape:flatsided="false" sodipodi:arg2="4.0056794" sodipodi:arg1="2.9584818" sodipodi:r2="29.938709" sodipodi:r1="59.877419" sodipodi:cy="647.97333" sodipodi:cx="1311.6351" sodipodi:sides="3" id="path5633" style="fill:#b8ebfe;fill-opacity:1;fill-rule:nonzero;stroke:none;display:inline" sodipodi:type="star"/>
    <path style="fill:#fd65ff;fill-opacity:1;stroke:none" d="m 813.28587,366.16293 c 44.43452,47.76087 77.44301,30.98002 77.44301,30.98002 78.71262,55.50587 118.06892,-24.52584 118.06892,-24.52584 83.7907,49.0517 112.9906,-45.17921 112.9906,-45.17921 71.0952,1.29084 58.3996,-103.26675 58.3996,-103.26675 27.9039,-46.29999 -17.7738,-63.25086 -17.7738,-63.25086 13.4261,-49.53265 -29.1866,-40.10762 -29.1866,-40.10762 0,0 11.5668,-34.631051 -22.8653,-36.051627 0,0 3.8087,-46.470035 -52.0518,-42.597529 -13.3667,-52.489339 -55.8606,-24.525842 -55.8606,-24.525842 C 940.24163,-23.669024 914.85052,7.3109926 914.85052,7.3109926 877.55995,-12.727035 858.98995,15.056002 858.98995,15.056002 836.72961,3.565681 819.63366,25.382682 819.63366,25.382682 782.8165,16.346837 767.5818,43.454348 767.5818,43.454348 c -55.86055,-9.03582 -73.63434,56.796712 -73.63434,56.796712 -53.32142,6.45418 -38.08672,78.74089 -38.08672,78.74089 -53.32143,63.25089 0,100.68509 0,100.68509 10.15646,86.48589 72.36477,47.76086 72.36477,47.76086 14.61581,5.21591 -4.47224,54.77273 85.06036,38.72503 z" id="path5449" inkscape:connector-curvature="0" sodipodi:nodetypes="ccccccccccccccccccc"/>
    <path sodipodi:nodetypes="ccccccccccccccccccc" inkscape:connector-curvature="0" id="path5472" d="m 815.03969,346.5747 c 44.0249,47.35784 76.72909,30.71862 76.72909,30.71862 77.987,55.03749 116.98042,-24.31892 116.98042,-24.31892 83.0184,48.63783 111.9491,-44.79797 111.9491,-44.79797 70.4397,1.27995 57.8612,-102.39538 57.8612,-102.39538 27.6466,-45.9093 -17.6099,-62.71716 -17.6099,-62.71716 13.3023,-49.114664 -28.9175,-39.76918 -28.9175,-39.76918 0,0 11.4602,-34.338825 -22.6546,-35.747408 0,0 3.7736,-46.077892 -51.5719,-42.238088 C 1044.5621,-26.73721 1002.46,0.99033351 1002.46,0.99033351 940.82506,-39.967844 915.66799,-9.2492171 915.66799,-9.2492171 878.72122,-29.118169 860.32242,-1.5695842 860.32242,-1.5695842 838.26729,-12.962941 821.32895,8.669966 821.32895,8.669966 c -36.47778,-8.95959134 -51.57201,17.919183 -51.57201,17.919183 -55.3456,-8.959567 -72.95555,56.317469 -72.95555,56.317469 -52.82988,6.399697 -37.73562,78.076482 -37.73562,78.076482 -52.82987,62.71716 0,99.83546 0,99.83546 10.06283,85.75614 71.69772,47.35787 71.69772,47.35787 14.48104,5.1719 -4.43103,54.31057 84.2762,38.39827 z" style="fill:#fd86ff;fill-opacity:1;stroke:none"/>
    <path style="fill:none;stroke:#fd65ff;stroke-width:4.34785843;stroke-linecap:round;stroke-linejoin:miter;stroke-miterlimit:4;stroke-opacity:1;stroke-dasharray:none" d="M 954.89235,39.391985 C 946.43339,-0.08770389 916.16217,22.985106 916.16217,22.985106 884.44789,-5.727919 864.56685,36.33235 864.56685,36.33235 829.75501,22.969773 829.59023,64.383437 829.59023,64.383437" id="path5478" inkscape:connector-curvature="0" sodipodi:nodetypes="cccc"/>
    <path sodipodi:nodetypes="cccc" inkscape:connector-curvature="0" id="path5480" d="m 878.68251,325.81898 c 7.43525,24.97108 34.04286,10.37741 34.04286,10.37741 27.87607,18.16113 45.35096,-8.44219 45.35096,-8.44219 30.59868,8.45188 30.74359,-17.74242 30.74359,-17.74242" style="fill:none;stroke:#fd65ff;stroke-width:3.24186778;stroke-linecap:round;stroke-linejoin:miter;stroke-miterlimit:4;stroke-opacity:1;stroke-dasharray:none"/>
    <path sodipodi:nodetypes="cccc" inkscape:connector-curvature="0" id="path5482" d="m 814.70788,173.76585 c -20.52421,-19.19616 5.14284,-33.94758 5.14284,-33.94758 -5.00235,-32.81264 28.08116,-33.6696 28.08116,-33.6696 5.4574,-30.058747 30.49613,-16.587651 30.49613,-16.587651" style="fill:none;stroke:#fd65ff;stroke-width:3.2888031;stroke-linecap:round;stroke-linejoin:miter;stroke-miterlimit:4;stroke-opacity:1;stroke-dasharray:none"/>
    <path style="fill:none;stroke:#fd65ff;stroke-width:3.2888031;stroke-linecap:round;stroke-linejoin:miter;stroke-miterlimit:4;stroke-opacity:1;stroke-dasharray:none" d="m 1016.3239,170.23728 c 20.5242,19.19619 -5.1428,33.94759 -5.1428,33.94759 5.0023,32.81266 -28.08123,33.66962 -28.08123,33.66962 -5.45745,30.05873 -30.49607,16.58763 -30.49607,16.58763" id="path5484" inkscape:connector-curvature="0" sodipodi:nodetypes="cccc"/>
    <path sodipodi:nodetypes="cccc" inkscape:connector-curvature="0" id="path5486" d="m 830.02739,274.11687 c -20.56391,12.54266 -26.68996,-11.9086 -26.68996,-11.9086 -28.12653,-3.306 -21.10523,-30.71591 -21.10523,-30.71591 -23.42148,-11.28787 -6.50703,-28.83918 -6.50703,-28.83918" style="fill:none;stroke:#fd65ff;stroke-width:2.80743098;stroke-linecap:round;stroke-linejoin:miter;stroke-miterlimit:4;stroke-opacity:1;stroke-dasharray:none"/>
    <path style="fill:none;stroke:#fd65ff;stroke-width:2.45244813;stroke-linecap:round;stroke-linejoin:miter;stroke-miterlimit:4;stroke-opacity:1;stroke-dasharray:none" d="m 985.08372,46.702413 c 11.21343,-18.155744 25.04748,-1.108001 25.04748,-1.108001 22.9546,-8.531696 27.7357,16.092272 27.7357,16.092272 22.292,-0.30499 15.7619,20.39224 15.7619,20.39224" id="path5488" inkscape:connector-curvature="0" sodipodi:nodetypes="cccc"/>
    <path style="fill:none;stroke:#fd65ff;stroke-width:4.69649744;stroke-linecap:round;stroke-linejoin:miter;stroke-miterlimit:4;stroke-opacity:1;stroke-dasharray:none" d="m 725.03894,261.10034 c -39.37022,-6.09151 -20.54099,-44.38113 -20.54099,-44.38113 -31.66735,-34.80873 6.84701,-62.65568 6.84701,-62.65568 -17.1175,-40.03004 23.10861,-44.38113 23.10861,-44.38113" id="path5474" inkscape:connector-curvature="0" sodipodi:nodetypes="cccc"/>
    <path sodipodi:nodetypes="cccc" inkscape:connector-curvature="0" id="path5476" d="m 1120.6868,241.14034 c 37.6507,-13.19174 12.3554,-47.41371 12.3554,-47.41371 24.9938,-40.03204 -17.8183,-60.38188 -17.8183,-60.38188 9.7574,-42.50753 -30.5824,-39.431615 -30.5824,-39.431615" style="fill:none;stroke:#fd65ff;stroke-width:4.69649744;stroke-linecap:round;stroke-linejoin:miter;stroke-miterlimit:4;stroke-opacity:1;stroke-dasharray:none"/>
    <path sodipodi:type="arc" style="fill:#fd86ff;fill-opacity:1;fill-rule:nonzero;stroke:none" id="path5504" sodipodi:cx="953.4704" sodipodi:cy="100.64101" sodipodi:rx="9.26758" sodipodi:ry="9.8127317" d="m 962.73798,100.64101 a 9.26758,9.8127317 0 1 1 -18.53516,0 9.26758,9.8127317 0 1 1 18.53516,0 z" transform="matrix(0.95892396,0,0,0.85505482,201.13506,-84.551333)"/>
    <path d="m 962.73798,100.64101 a 9.26758,9.8127317 0 1 1 -18.53516,0 9.26758,9.8127317 0 1 1 18.53516,0 z" sodipodi:ry="9.8127317" sodipodi:rx="9.26758" sodipodi:cy="100.64101" sodipodi:cx="953.4704" id="path5506" style="fill:#700070;fill-opacity:1;fill-rule:nonzero;stroke:none" sodipodi:type="arc" transform="matrix(0.68494566,0,0,0.59196104,417.93066,-149.72257)"/>
    <path transform="matrix(1.0959131,0,0,1.0523752,-52.627141,-159.2703)" sodipodi:type="arc" style="fill:#fd86ff;fill-opacity:1;fill-rule:nonzero;stroke:none" id="path5508" sodipodi:cx="953.4704" sodipodi:cy="100.64101" sodipodi:rx="9.26758" sodipodi:ry="9.8127317" d="m 962.73798,100.64101 a 9.26758,9.8127317 0 1 1 -18.53516,0 9.26758,9.8127317 0 1 1 18.53516,0 z"/>
    <path transform="matrix(0.95892396,0,0,0.85505482,-211.47118,-89.714673)" d="m 962.73798,100.64101 a 9.26758,9.8127317 0 1 1 -18.53516,0 9.26758,9.8127317 0 1 1 18.53516,0 z" sodipodi:ry="9.8127317" sodipodi:rx="9.26758" sodipodi:cy="100.64101" sodipodi:cx="953.4704" id="path5510" style="fill:#fd86ff;fill-opacity:1;fill-rule:nonzero;stroke:none" sodipodi:type="arc"/>
    <path sodipodi:type="arc" style="fill:#bd00bd;fill-opacity:1;fill-rule:nonzero;stroke:none" id="path5512" sodipodi:cx="953.4704" sodipodi:cy="100.64101" sodipodi:rx="9.26758" sodipodi:ry="9.8127317" d="m 962.73798,100.64101 a 9.26758,9.8127317 0 1 1 -18.53516,0 9.26758,9.8127317 0 1 1 18.53516,0 z" transform="matrix(1.2329022,0,0,1.0523751,-434.61461,-177.342)"/>
    <path transform="matrix(0.68494566,0,0,0.59196104,205.91454,-110.99754)" sodipodi:type="arc" style="fill:#bd00bd;fill-opacity:1;fill-rule:nonzero;stroke:none" id="path5514" sodipodi:cx="953.4704" sodipodi:cy="100.64101" sodipodi:rx="9.26758" sodipodi:ry="9.8127317" d="m 962.73798,100.64101 a 9.26758,9.8127317 0 1 1 -18.53516,0 9.26758,9.8127317 0 1 1 18.53516,0 z"/>
    <path d="m 962.73798,100.64101 a 9.26758,9.8127317 0 1 1 -18.53516,0 9.26758,9.8127317 0 1 1 18.53516,0 z" sodipodi:ry="9.8127317" sodipodi:rx="9.26758" sodipodi:cy="100.64101" sodipodi:cx="953.4704" id="path5516" style="fill:#fd86ff;fill-opacity:1;fill-rule:nonzero;stroke:none" sodipodi:type="arc" transform="matrix(0.68494566,0,0,0.59196104,167.82782,-167.79423)"/>
    <path transform="matrix(0.45635148,0,0,0.4069202,898.06725,44.269567)" d="m 962.73798,100.64101 a 9.26758,9.8127317 0 1 1 -18.53516,0 9.26758,9.8127317 0 1 1 18.53516,0 z" sodipodi:ry="9.8127317" sodipodi:rx="9.26758" sodipodi:cy="100.64101" sodipodi:cx="953.4704" id="path5576" style="fill:#ffccaa;fill-opacity:1;fill-rule:nonzero;stroke:none" sodipodi:type="arc"/>
    <path sodipodi:type="arc" style="fill:#ffccaa;fill-opacity:1;fill-rule:nonzero;stroke:none" id="path5578" sodipodi:cx="953.4704" sodipodi:cy="100.64101" sodipodi:rx="9.26758" sodipodi:ry="9.8127317" d="m 962.73798,100.64101 a 9.26758,9.8127317 0 1 1 -18.53516,0 9.26758,9.8127317 0 1 1 18.53516,0 z" transform="matrix(0.64481613,0,0,0.57497069,662.52886,74.026863)"/>
    <path sodipodi:type="arc" style="fill:#ffe6d5;fill-opacity:1;fill-rule:nonzero;stroke:none" id="path5580" sodipodi:cx="953.4704" sodipodi:cy="100.64101" sodipodi:rx="9.26758" sodipodi:ry="9.8127317" d="m 962.73798,100.64101 a 9.26758,9.8127317 0 1 1 -18.53516,0 9.26758,9.8127317 0 1 1 18.53516,0 z" transform="matrix(0.45635148,0,0,0.4069202,870.12142,71.499792)"/>
    <path transform="matrix(0.45635148,0,0,0.4069202,877.10787,96.36214)" d="m 962.73798,100.64101 a 9.26758,9.8127317 0 1 1 -18.53516,0 9.26758,9.8127317 0 1 1 18.53516,0 z" sodipodi:ry="9.8127317" sodipodi:rx="9.26758" sodipodi:cy="100.64101" sodipodi:cx="953.4704" id="path5582" style="fill:#ffccaa;fill-opacity:1;fill-rule:nonzero;stroke:none" sodipodi:type="arc"/>
    <path sodipodi:type="arc" style="fill:#ffccaa;fill-opacity:1;fill-rule:nonzero;stroke:none" id="path5584" sodipodi:cx="953.4704" sodipodi:cy="100.64101" sodipodi:rx="9.26758" sodipodi:ry="9.8127317" d="m 962.73798,100.64101 a 9.26758,9.8127317 0 1 1 -18.53516,0 9.26758,9.8127317 0 1 1 18.53516,0 z" transform="matrix(0.45635148,0,0,0.4069202,801.84198,134.78222)"/>
    <path transform="matrix(0.64481613,0,0,0.57497069,633.31353,184.88788)" d="m 962.73798,100.64101 a 9.26758,9.8127317 0 1 1 -18.53516,0 9.26758,9.8127317 0 1 1 18.53516,0 z" sodipodi:ry="9.8127317" sodipodi:rx="9.26758" sodipodi:cy="100.64101" sodipodi:cx="953.4704" id="path5586" style="fill:#ffccaa;fill-opacity:1;fill-rule:nonzero;stroke:none" sodipodi:type="arc"/>
    <path transform="matrix(0.45635148,0,0,0.4069202,820.16481,164.80003)" d="m 962.73798,100.64101 a 9.26758,9.8127317 0 1 1 -18.53516,0 9.26758,9.8127317 0 1 1 18.53516,0 z" sodipodi:ry="9.8127317" sodipodi:rx="9.26758" sodipodi:cy="100.64101" sodipodi:cx="953.4704" id="path5588" style="fill:#ffe6d5;fill-opacity:1;fill-rule:nonzero;stroke:none" sodipodi:type="arc"/>
    <path sodipodi:type="arc" style="fill:#ffccaa;fill-opacity:1;fill-rule:nonzero;stroke:none" id="path5590" sodipodi:cx="953.4704" sodipodi:cy="100.64101" sodipodi:rx="9.26758" sodipodi:ry="9.8127317" d="m 962.73798,100.64101 a 9.26758,9.8127317 0 1 1 -18.53516,0 9.26758,9.8127317 0 1 1 18.53516,0 z" transform="matrix(0.45635148,0,0,0.4069202,774.64001,174.50101)"/>
    <path sodipodi:type="arc" style="fill:#ffccaa;fill-opacity:1;fill-rule:nonzero;stroke:none" id="path5592" sodipodi:cx="953.4704" sodipodi:cy="100.64101" sodipodi:rx="9.26758" sodipodi:ry="9.8127317" d="m 962.73798,100.64101 a 9.26758,9.8127317 0 1 1 -18.53516,0 9.26758,9.8127317 0 1 1 18.53516,0 z" transform="matrix(0.64481613,0,0,0.57497069,547.78602,280.25102)"/>
    <path transform="matrix(0.45635148,0,0,0.4069202,754.84507,331.96263)" d="m 962.73798,100.64101 a 9.26758,9.8127317 0 1 1 -18.53516,0 9.26758,9.8127317 0 1 1 18.53516,0 z" sodipodi:ry="9.8127317" sodipodi:rx="9.26758" sodipodi:cy="100.64101" sodipodi:cx="953.4704" id="path5594" style="fill:#ffccaa;fill-opacity:1;fill-rule:nonzero;stroke:none" sodipodi:type="arc"/>
    <path transform="matrix(0.45635148,0,0,0.4069202,775.80441,245.53633)" d="m 962.73798,100.64101 a 9.26758,9.8127317 0 1 1 -18.53516,0 9.26758,9.8127317 0 1 1 18.53516,0 z" sodipodi:ry="9.8127317" sodipodi:rx="9.26758" sodipodi:cy="100.64101" sodipodi:cx="953.4704" id="path5596" style="fill:#ffe6d5;fill-opacity:1;fill-rule:nonzero;stroke:none" sodipodi:type="arc"/>
    <path sodipodi:type="arc" style="fill:#ffe6d5;fill-opacity:1;fill-rule:nonzero;stroke:none" id="path5598" sodipodi:cx="953.4704" sodipodi:cy="100.64101" sodipodi:rx="9.26758" sodipodi:ry="9.8127317" d="m 962.73798,100.64101 a 9.26758,9.8127317 0 1 1 -18.53516,0 9.26758,9.8127317 0 1 1 18.53516,0 z" transform="matrix(0.45635148,0,0,0.4069202,689.63825,361.56069)"/>
    <path sodipodi:type="arc" style="fill:#ffccaa;fill-opacity:1;fill-rule:nonzero;stroke:none" id="path5600" sodipodi:cx="953.4704" sodipodi:cy="100.64101" sodipodi:rx="9.26758" sodipodi:ry="9.8127317" d="m 962.73798,100.64101 a 9.26758,9.8127317 0 1 1 -18.53516,0 9.26758,9.8127317 0 1 1 18.53516,0 z" transform="matrix(0.45635148,0,0,-0.48288553,635.94816,477.41281)"/>
    <path style="fill:#f39551;fill-opacity:1;fill-rule:nonzero;stroke:none" d="m 1360.9188,158.96073 c -6.0304,-0.96812 -1.6949,-11.73683 4.6113,-23.30056 1.8528,14.40356 3.8301,24.65576 -4.6113,23.30056 z" id="path5616" inkscape:connector-curvature="0" sodipodi:nodetypes="scs"/>
    <path sodipodi:nodetypes="scs" inkscape:connector-curvature="0" id="path5627" d="m 1285.4764,294.08442 c -6.0795,-0.56767 -2.4414,-11.60003 3.1122,-23.55601 2.7694,14.25068 5.3977,24.35059 -3.1122,23.55601 z" style="fill:#f39551;fill-opacity:1;fill-rule:nonzero;stroke:none"/>
    <path sodipodi:nodetypes="scs" inkscape:connector-curvature="0" id="path5631" d="m 1280.4756,50.099472 c -1.7157,-5.957244 9.7126,-6.572698 22.6896,-5.71613 -12.0165,7.857211 -20.2881,14.055157 -22.6896,5.71613 z" style="fill:#f39551;fill-opacity:1;fill-rule:nonzero;stroke:none"/>
    <text xml:space="preserve" style="font-size:38.25040054px;font-style:normal;font-variant:normal;font-weight:500;font-stretch:normal;line-height:125%;letter-spacing:0px;word-spacing:0px;fill:#000000;fill-opacity:1;stroke:none;font-family:HarlequinExtraboldFLF;-inkscape-font-specification:HarlequinExtraboldFLF Medium" x="405.19321" y="243.00458" id="text5647" sodipodi:linespacing="125%" transform="scale(0.99172432,1.0083447)"><tspan sodipodi:role="line" id="tspan5649" x="405.19321" y="243.00458"/></text>
  </g>
</svg>
